HIERARCHY
ROOT Hips
{
	OFFSET 50.088902 7.043302 49.397301
	CHANNELS 6 Xposition Yposition Zposition Xrotation Yrotation Zrotation
	JOINT spine
	{
		OFFSET 0.000000 -0.359108 6.244789
		CHANNELS 3 Xrotation Yrotation Zrotation
		JOINT spine1
		{
			OFFSET 0.000000 -0.000001 9.069412
			CHANNELS 3 Xrotation Yrotation Zrotation
			JOINT spine2
			{
				OFFSET 0.000000 -0.000001 8.690140
				CHANNELS 3 Xrotation Yrotation Zrotation
				JOINT Neck
				{
					OFFSET 0.000000 -1.063724 22.311203
					CHANNELS 3 Xrotation Yrotation Zrotation
					JOINT Head
					{
						OFFSET 0.000000 -0.000001 6.740807
						CHANNELS 3 Xrotation Yrotation Zrotation
						End Site
						{
							OFFSET 0.000000 5.380968 16.316498
						}
					}
				}
				JOINT RightShoulder
				{
					OFFSET -3.659161 0.509512 9.384682
					CHANNELS 3 Xrotation Yrotation Zrotation
					JOINT RightArm
					{
						OFFSET 0.000000 -0.000002 12.308899
						CHANNELS 3 Xrotation Yrotation Zrotation
						JOINT RightArmRoll
						{
							OFFSET 0.000000 -0.000001 6.213753
							CHANNELS 3 Xrotation Yrotation Zrotation
							JOINT RightForeArm
							{
								OFFSET 0.000000 -0.000003 18.098495
								CHANNELS 3 Xrotation Yrotation Zrotation
								JOINT RightForeArmRoll
								{
									OFFSET 0.000000 -0.000001 6.972801
									CHANNELS 3 Xrotation Yrotation Zrotation
									JOINT RightHand
									{
										OFFSET 0.000000 -0.000002 13.992897
										CHANNELS 3 Xrotation Yrotation Zrotation
										End Site
										{
											OFFSET 0.000000 0.000000 0.100006
										}
									}
								}
							}
						}
					}
				}
				JOINT LeftShoulder
				{
					OFFSET 3.659161 0.509512 9.384682
					CHANNELS 3 Xrotation Yrotation Zrotation
					JOINT LeftArm
					{
						OFFSET 0.000000 -0.000002 12.308899
						CHANNELS 3 Xrotation Yrotation Zrotation
						JOINT LeftArmRoll
						{
							OFFSET 0.000000 -0.000001 6.213753
							CHANNELS 3 Xrotation Yrotation Zrotation
							JOINT LeftForeArm
							{
								OFFSET 0.000000 -0.000003 18.098495
								CHANNELS 3 Xrotation Yrotation Zrotation
								JOINT LeftForeArmRoll
								{
									OFFSET 0.000000 -0.000001 6.972794
									CHANNELS 3 Xrotation Yrotation Zrotation
									JOINT LeftHand
									{
										OFFSET 0.000000 -0.000002 13.992905
										CHANNELS 3 Xrotation Yrotation Zrotation
										End Site
										{
											OFFSET 0.000000 0.000000 0.100006
										}
									}
								}
							}
						}
					}
				}
			}
		}
	}
	JOINT RightUpLeg
	{
		OFFSET -5.535149 0.851454 -1.014999
		CHANNELS 3 Xrotation Yrotation Zrotation
		JOINT RightUpLegRoll
		{
			OFFSET 0.000000 -0.000002 16.407501
			CHANNELS 3 Xrotation Yrotation Zrotation
			JOINT RightLeg
			{
				OFFSET 0.000000 0.000003 -20.318100
				CHANNELS 3 Xrotation Yrotation Zrotation
				JOINT RightLegRoll
				{
					OFFSET 0.000000 -0.000003 20.384598
					CHANNELS 3 Xrotation Yrotation Zrotation
					JOINT RightFoot
					{
						OFFSET 0.000000 -0.000003 16.966805
						CHANNELS 3 Xrotation Yrotation Zrotation
						JOINT RightToeBase
						{
							OFFSET 0.000000 -0.000002 14.183403
							CHANNELS 3 Xrotation Yrotation Zrotation
							End Site
							{
								OFFSET 0.006012 0.791744 6.868896
							}
						}
					}
				}
			}
		}
	}
	JOINT LeftUpLeg
	{
		OFFSET 5.535149 0.851454 -1.014999
		CHANNELS 3 Xrotation Yrotation Zrotation
		JOINT LeftUpLegRoll
		{
			OFFSET 0.000000 -0.000002 16.407600
			CHANNELS 3 Xrotation Yrotation Zrotation
			JOINT LeftLeg
			{
				OFFSET 0.000000 -0.000003 20.318100
				CHANNELS 3 Xrotation Yrotation Zrotation
				JOINT LeftLegRoll
				{
					OFFSET 0.000000 -0.000003 20.573097
					CHANNELS 3 Xrotation Yrotation Zrotation
					JOINT LeftFoot
					{
						OFFSET 0.000000 -0.000003 16.778297
						CHANNELS 3 Xrotation Yrotation Zrotation
						JOINT LeftToeBase
						{
							OFFSET 0.000000 -0.000002 14.183395
							CHANNELS 3 Xrotation Yrotation Zrotation
							End Site
							{
								OFFSET -0.026943 0.791745 6.868896
							}
						}
					}
				}
			}
		}
	}
}
MOTION
Frames: 8
Frame Time: 0.041667
49.258495 -2.856154 61.827999 45.684325 -3.375882 -3.406577 1.165674 -0.906097 0.078003 6.337179 -1.808797 0.187037 7.982623 -1.806457 0.208813 27.389644 8.404470 -7.420701 3.695817 -13.182490 -5.681777 -6.703712 -35.478414 -5.650394 -18.161060 -142.465220 -58.071887 0.000001 -0.000002 0.000007 89.665337 -4.631677 -2.475137 -0.000000 0.000007 -2.999998 -5.000223 -7.998747 0.000173 -0.672714 67.785113 1.767188 -67.844146 111.338319 96.438460 0.000001 0.000002 0.000001 79.843388 4.426255 2.112639 -0.000001 0.000002 3.000000 -5.000175 7.999951 -0.000023 -111.088068 -190.308004 -4.599211 179.999991 -0.000005 -0.389002 107.308344 3.190524 0.707271 -0.000001 0.000003 1.126021 71.283597 6.525864 2.970691 25.457042 -7.348723 0.000162 -111.307351 178.219101 2.851324 -0.000005 -0.000004 -0.589701 -82.866655 1.518634 2.244107 -0.000002 0.000000 -1.683270 75.098592 -6.606375 -2.517506 30.304624 7.190686 -2.269648 
49.267899 -2.801223 61.794502 45.685564 -3.379706 -3.399662 1.164209 -0.905935 0.078066 6.334128 -1.808520 0.188240 7.979572 -1.806173 0.210045 27.367851 8.403163 -7.391570 3.568199 -13.127087 -5.675576 -6.689744 -35.504730 -5.634261 -18.193783 -142.448677 -58.143174 -0.000001 0.000001 0.000010 89.657728 -4.613867 -2.489289 -0.000001 0.000013 -2.999999 -5.000221 -7.998744 0.000174 -0.690443 67.751037 1.783335 -67.761521 111.339146 96.394938 0.000002 0.000002 -0.000001 79.906151 4.390292 2.149611 -0.000000 0.000005 2.999997 -5.000178 7.999952 -0.000026 -111.167175 -190.286939 -4.590402 179.999991 -0.000005 -0.388004 107.293372 3.178038 0.697591 -0.000001 0.000004 1.122850 71.223553 6.527830 2.968134 25.457037 -7.348722 0.000162 -111.384901 178.226355 2.845810 -0.000005 -0.000004 -0.589644 -82.885411 1.523631 2.248783 -0.000002 0.000000 -1.681070 75.064681 -6.607820 -2.515387 30.285090 7.191783 -2.262999 
49.281799 -2.742943 61.762993 45.685749 -3.382745 -3.393665 1.162800 -0.905743 0.078028 6.331209 -1.808181 0.189288 7.976638 -1.805830 0.211121 27.345887 8.399628 -7.361584 3.440077 -13.070219 -5.668555 -6.674882 -35.533205 -5.617162 -18.228730 -142.429525 -58.217268 -0.000001 0.000002 0.000009 89.649621 -4.595712 -2.503364 0.000001 0.000010 -3.000001 -5.000225 -7.998745 0.000175 -0.712149 67.715247 1.803749 -67.673118 111.340847 96.345726 -0.000001 -0.000002 0.000001 79.969658 4.354503 2.186511 0.000001 0.000002 3.000000 -5.000177 7.999952 -0.000023 -111.245443 -190.265247 -4.580910 179.999991 -0.000005 -0.388004 107.278824 3.163807 0.687163 -0.000001 0.000004 1.119699 71.163195 6.530115 2.964750 25.457044 -7.348721 0.000162 -111.462021 178.233349 2.841270 -0.000006 -0.000005 -0.589607 -82.905055 1.527939 2.253059 -0.000001 -0.000000 -1.678940 75.030666 -6.609256 -2.513373 30.265367 7.192858 -2.256643 
49.286995 -2.717644 61.666405 45.684690 -3.385102 -3.388591 1.161484 -0.905556 0.077912 6.328483 -1.807854 0.190198 7.973918 -1.805495 0.212057 27.323035 8.395059 -7.330898 3.312294 -13.013067 -5.660673 -6.659835 -35.563064 -5.599963 -18.265302 -142.409663 -58.293711 -0.000001 -0.000000 0.000008 89.640769 -4.577475 -2.517459 -0.000003 0.000012 -3.000001 -5.000224 -7.998745 0.000171 -0.737262 67.678336 1.827873 -67.579995 111.343360 96.291850 -0.000002 0.000001 -0.000000 80.033664 4.318885 2.223652 0.000000 0.000004 2.999999 -5.000172 7.999956 -0.000026 -111.322938 -190.243185 -4.569193 179.999991 -0.000004 -0.388004 107.264412 3.148705 0.676874 -0.000002 0.000003 1.116560 71.102618 6.532618 2.960919 25.457041 -7.348723 0.000163 -111.538622 178.240070 2.836657 -0.000004 -0.000004 -0.589586 -82.925375 1.531573 2.256696 -0.000003 0.000000 -1.676880 74.996563 -6.610710 -2.511368 30.245536 7.193904 -2.250525 
49.291897 -2.659363 61.626797 45.682187 -3.386880 -3.384411 1.160299 -0.905410 0.077743 6.326007 -1.807604 0.190985 7.971443 -1.805248 0.212874 27.298878 8.390642 -7.299751 3.185642 -12.956925 -5.651882 -6.645266 -35.593209 -5.583438 -18.303146 -142.390019 -58.372381 -0.000002 -0.000001 0.000010 89.630906 -4.559443 -2.531301 -0.000000 0.000011 -2.999999 -5.000223 -7.998746 0.000169 -0.765186 67.640996 1.855119 -67.483895 111.346748 96.234941 0.000000 0.000003 -0.000002 80.098072 4.283420 2.260630 -0.000001 0.000004 2.999997 -5.000177 7.999950 -0.000023 -111.399415 -190.221137 -4.557291 179.999991 -0.000005 -0.388004 107.249850 3.132681 0.664716 -0.000002 0.000004 1.113440 71.041972 6.535218 2.956811 25.457041 -7.348722 0.000162 -111.614368 178.246504 2.831872 -0.000004 -0.000005 -0.589577 -82.946493 1.534584 2.260045 -0.000001 0.000000 -1.674911 74.962446 -6.612118 -2.509358 30.225503 7.194947 -2.244611 
49.306499 -2.585894 61.635201 45.678352 -3.388170 -3.381100 1.159278 -0.905342 0.077543 6.323873 -1.807492 0.191667 7.969291 -1.805130 0.213583 27.272793 8.387560 -7.268308 3.060923 -12.903085 -5.642170 -6.631862 -35.622681 -5.568428 -18.342234 -142.370580 -58.453715 0.000001 -0.000000 0.000011 89.619807 -4.541774 -2.544574 -0.000000 0.000007 -3.000000 -5.000218 -7.998748 0.000172 -0.795358 67.603853 1.884915 -67.386284 111.350778 96.176447 -0.000002 0.000003 0.000001 80.162727 4.248028 2.297843 0.000003 0.000005 2.999999 -5.000177 7.999949 -0.000020 -111.474848 -190.199349 -4.544772 179.999991 -0.000004 -0.386994 107.234885 3.116612 0.653570 -0.000002 0.000004 1.110330 70.981443 6.537788 2.952894 25.457041 -7.348722 0.000162 -111.689405 178.252624 2.827936 -0.000006 -0.000004 -0.589576 -82.968111 1.537022 2.262854 0.000001 -0.000000 -1.673020 74.928336 -6.613532 -2.507352 30.205258 7.195975 -2.238827 
49.319191 -2.544814 61.559502 45.672888 -3.389096 -3.378626 1.158427 -0.905386 0.077337 6.322113 -1.807588 0.192261 7.967531 -1.805236 0.214207 27.244161 8.387008 -7.236764 2.938952 -12.852535 -5.631517 -6.620290 -35.650661 -5.555746 -18.381856 -142.354215 -58.536948 0.000000 0.000000 0.000006 89.607219 -4.524547 -2.557216 -0.000003 0.000004 -2.999997 -5.000222 -7.998746 0.000171 -0.827211 67.567694 1.916698 -67.288216 111.355388 96.117496 -0.000001 0.000002 0.000002 80.227341 4.212789 2.335012 0.000002 0.000005 3.000000 -5.000176 7.999947 -0.000025 -111.549161 -190.178285 -4.532643 179.999991 -0.000005 -0.386994 107.219306 3.101072 0.643354 -0.000002 0.000004 1.107260 70.921098 6.540228 2.949349 25.457039 -7.348723 0.000162 -111.763389 178.258416 2.824728 -0.000005 -0.000004 -0.589579 -82.990330 1.538912 2.265438 -0.000003 0.000000 -1.671221 74.894138 -6.614960 -2.505452 30.184921 7.196995 -2.233139 
49.328991 -2.480895 61.542900 45.665805 -3.389735 -3.376999 1.157821 -0.905578 0.077147 6.320807 -1.807960 0.192784 7.966231 -1.805607 0.214758 27.212271 8.390163 -7.205268 2.820541 -12.806779 -5.619929 -6.611257 -35.676107 -5.546241 -18.422250 -142.339981 -58.622858 -0.000001 0.000001 0.000009 89.592903 -4.508116 -2.568826 -0.000002 0.000004 -2.999999 -5.000223 -7.998747 0.000171 -0.860177 67.532922 1.949913 -67.191446 111.360627 96.059767 -0.000001 -0.000001 0.000002 80.291879 4.177600 2.372227 0.000001 0.000004 3.000003 -5.000176 7.999950 -0.000024 -111.622162 -190.158122 -4.520385 179.999991 -0.000005 -0.386993 107.202865 3.086322 0.633037 -0.000002 0.000003 1.104210 70.861102 6.542379 2.946638 25.457039 -7.348722 0.000162 -111.836452 178.263853 2.820231 -0.000004 -0.000004 -0.589584 -83.013060 1.540289 2.267560 -0.000002 -0.000000 -1.669510 74.859850 -6.616408 -2.503461 30.164287 7.198036 -2.227494 
